<?xml version="1.0" encoding="utf-8"?>
<!-- Generator: Adobe Illustrator 24.3.0, SVG Export Plug-In . SVG Version: 6.00 Build 0)  -->
<svg version="1.1" id="Calque_1" xmlns="http://www.w3.org/2000/svg" xmlns:xlink="http://www.w3.org/1999/xlink" x="0px" y="0px"
	 viewBox="0 0 34.8 27.2" style="enable-background:new 0 0 34.8 27.2;" xml:space="preserve">
<style type="text/css">
	.st0{fill:#302644;}
	.st1{fill:#FF2753;}
	.st2{fill:#FFFFFF;}
	.st3{fill:#4A3866;}
	.st4{fill:#FFDD5A;}
</style>
<g>
	<path class="st0" d="M17.5,24.3c0,0-0.7,1.2,0.4,1.5c1.5,0.4,2-2.1,2-2.1L17.5,24.3"/>
	<path class="st0" d="M17.8,24.3c0,0-1,2.3-2.4,1.8c-1.4-0.4,0.4-2,0.4-2L17.8,24.3"/>
	<path class="st0" d="M16,24c0,0-2,3-3.3,1.8c-0.7-0.7,0.5-2.5,0.5-2.5L16,24"/>
</g>
<path class="st1" d="M17,1.2c-6.4,0-11.6,5.2-11.6,11.6c0,0.9,0.1,1.8,0.3,2.7c-0.8,0.5-1.9,1.4-2,3h1.9c0,0-2.3,1.3-2.4,3.3
	l1.7-0.4c0,0-1.9,1.8-2,3.8l5.9-4c2.1,2.1,5,3.3,8.1,3.3c6.4,0,11.6-5.2,11.6-11.6C28.6,6.4,23.4,1.2,17,1.2"/>
<path class="st2" d="M14.7,21.5l8.8-15.2c0,0-4.9-4-8.8-0.7C10.2,9.4,10.9,18.6,14.7,21.5"/>
<circle class="st3" cx="17.2" cy="9.1" r="2.7"/>
<path class="st4" d="M19.8,17.1l8.5,7.1c0,0,10.2-13.7-2.8-17.2L19.8,17.1"/>
<g>
	<path class="st2" d="M29.5,12.8c0,0,2.4,1.9,0.5,4.4C30.2,15,29.5,12.8,29.5,12.8"/>
</g>
</svg>
